PathFileType	4	(X/Y/Z)	/Users/itak/Documents/Research/Walk-IL/dataset/trc/00215_00009.trc
DataRate	CameraRate	NumFrames	NumMarkers	Units	OrigDataRate	OrigDataStartFrame	OrigNumFrames
100.000000	100.000000	4	53	mm	100.000000	0	595
Frame#	Time	RPSI			LPSI			L3			STRN			T10			C7			CLAV			RBAK			LBAK			LSHO			LUPA			LAEL			LAOL			LWTS			LWPS			LFRA			LIFD			LHPS			LHTS			RSHO			RUPA			RAEL			RAOL			RWTS			RWPS			RFRA			RIFD			RHTS			RHPS			RBHD			LFHD			RFHD			LBHD			LHIP			RHIP			RASI			LASI			LKNE			LTHI			LANK			LTIP			LTOE			LMT1			LMT5			LHEE			RKNE			RTHI			RANK			RTIP			RTOE			RMT1			RMT5			RHEE			
		X1	Y1	Z1	X2	Y2	Z2	X3	Y3	Z3	X4	Y4	Z4	X5	Y5	Z5	X6	Y6	Z6	X7	Y7	Z7	X8	Y8	Z8	X9	Y9	Z9	X10	Y10	Z10	X11	Y11	Z11	X12	Y12	Z12	X13	Y13	Z13	X14	Y14	Z14	X15	Y15	Z15	X16	Y16	Z16	X17	Y17	Z17	X18	Y18	Z18	X19	Y19	Z19	X20	Y20	Z20	X21	Y21	Z21	X22	Y22	Z22	X23	Y23	Z23	X24	Y24	Z24	X25	Y25	Z25	X26	Y26	Z26	X27	Y27	Z27	X28	Y28	Z28	X29	Y29	Z29	X30	Y30	Z30	X31	Y31	Z31	X32	Y32	Z32	X33	Y33	Z33	X34	Y34	Z34	X35	Y35	Z35	X36	Y36	Z36	X37	Y37	Z37	X38	Y38	Z38	X39	Y39	Z39	X40	Y40	Z40	X41	Y41	Z41	X42	Y42	Z42	X43	Y43	Z43	X44	Y44	Z44	X45	Y45	Z45	X46	Y46	Z46	X47	Y47	Z47	X48	Y48	Z48	X49	Y49	Z49	X50	Y50	Z50	X51	Y51	Z51	X52	Y52	Z52	X53	Y53	Z53	

1	0	-1771.810302734375	1057.216674804688	-167.8097991943359	-1759.766845703125	1062.5390625	-287.2389831542969	-1765.759033203125	1134.613891601562	-244.5845794677734	-1526.95166015625	1323.238403320312	-225.2505187988281	-1780.37109375	1262.871215820312	-241.4678344726562	-1717.953247070312	1524.406372070312	-243.101806640625	-1552.995239257812	1440.320068359375	-226.0162353515625	-1799.89599609375	1387.281494140625	-173.6494598388672	-1728.233642578125	1485.193725585938	-355.0697631835938	-1634.058715820312	1483.968017578125	-400.6758422851562	-1648.76220703125	1365.774047851562	-481.3102722167969	-1610.58056640625	1156.608032226562	-502.6890258789062	-1688.347045898438	1133.495727539062	-471.1846008300781	-1501.892211914062	939.6593017578125	-416.5817565917969	-1510.079223632812	915.7184448242188	-496.99267578125	-1571.979614257812	1052.707763671875	-506.2834777832031	-1478.817260742188	748.324462890625	-407.7807922363281	-1481.819946289062	830.970703125	-483.861083984375	-1449.39306640625	844.0784912109375	-424.7173461914062	-1672.6015625	1485.617919921875	-68.44345092773438	-1695.183349609375	1421.733154296875	-1.454625010490417	-1709.375610351562	1138.790283203125	34.80865097045898	-1746.278930664062	1133.682861328125	-53.21154403686523	-1568.268432617188	927.5296020507812	-16.69531059265137	-1619.7666015625	910.3462524414062	48.57761001586914	-1680.58349609375	1070.638305664062	44.56403732299805	-1553.351928710938	734.3853149414062	-27.99514579772949	-1526.33203125	806.2662353515625	-5.6628737449646	-1577.77880859375	803.8587036132812	45.43104934692383	-1691.079833984375	1677.09716796875	-221.9323883056641	-1470.621948242188	1730.697387695312	-243.9668121337891	-1507.252197265625	1736.6005859375	-150.8573760986328	-1601.382202148438	1678.584228515625	-330.0335998535156	-1649.74560546875	996.948486328125	-418.656494140625	-1685.517578125	1013.727172851562	-52.27352523803711	-1584.701293945312	1055.926879882812	-81.08338928222656	-1553.193969726562	1035.755126953125	-360.9916076660156	-1629.342407226562	509.7547302246094	-371.7806701660156	-1625.606689453125	654.0183715820312	-404.0268249511719	-1710.922729492188	40.21244049072266	-363.0250549316406	-1678.306396484375	287.9665222167969	-379.70849609375	-1500.751953125	47.29062271118164	-296.5260314941406	-1570.57177734375	40.26826095581055	-256.6978454589844	-1582.14794921875	42.16549301147461	-372.3896179199219	-1776.161743164062	47.35077667236328	-314.7647094726562	-1648.973388671875	519.2778930664062	-87.67894744873047	-1630.28466796875	788.8613891601562	-39.55986785888672	-1723.486206054688	40.07580184936523	-115.4424362182617	-1645.175170898438	404.0123291015625	-105.6374969482422	-1510.306396484375	47.84188461303711	-144.8452606201172	-1563.97607421875	44.81603240966797	-191.6121673583984	-1615.598022460938	40.68602752685547	-82.70681762695312	-1782.608276367188	40.0460205078125	-178.30908203125	
2	0.01	-1771.819946289062	1057.25537109375	-167.6977233886719	-1759.639038085938	1062.583251953125	-287.102294921875	-1765.63720703125	1134.6591796875	-244.466796875	-1526.71923828125	1323.188354492188	-224.9741058349609	-1780.179077148438	1262.982421875	-241.2807922363281	-1717.63623046875	1524.45947265625	-242.8528289794922	-1552.743774414062	1440.322509765625	-225.7285766601562	-1799.681640625	1387.376708984375	-173.4425506591797	-1727.919921875	1485.300903320312	-354.8631591796875	-1633.684204101562	1484.04052734375	-400.4028930664062	-1648.411499023438	1365.852294921875	-481.0637817382812	-1610.240234375	1156.674072265625	-502.3436889648438	-1688.054321289062	1133.58056640625	-470.896484375	-1501.547973632812	939.8340454101562	-416.0421142578125	-1509.838989257812	915.8208618164062	-496.541015625	-1571.710327148438	1052.78662109375	-505.9310302734375	-1478.191650390625	748.65673828125	-407.0516967773438	-1481.377075195312	831.1256103515625	-483.3225708007812	-1448.88916015625	844.374755859375	-424.1494445800781	-1672.38720703125	1485.603759765625	-68.21694946289062	-1694.943481445312	1421.72265625	-1.191103100776672	-1709.437255859375	1138.794189453125	35.01914596557617	-1746.3427734375	1133.697631835938	-53.03299713134766	-1568.446411132812	927.4823608398438	-16.46501159667969	-1619.926635742188	910.3114624023438	48.80198669433594	-1680.639404296875	1070.650634765625	44.76092529296875	-1553.73681640625	734.3267822265625	-27.80203437805176	-1526.325439453125	806.2977905273438	-5.465351581573486	-1577.92724609375	803.7872924804688	45.6674690246582	-1690.650390625	1677.21923828125	-221.1321105957031	-1470.021362304688	1730.585815429688	-244.0603790283203	-1506.377319335938	1736.35498046875	-150.7473754882812	-1601.397338867188	1678.64404296875	-329.6047058105469	-1649.64453125	996.9658203125	-418.5151977539062	-1685.443969726562	1013.697937011719	-52.13680648803711	-1584.718505859375	1055.863891601562	-80.87577819824219	-1553.07275390625	1035.682250976562	-360.7847900390625	-1629.328369140625	509.7668762207031	-371.7174072265625	-1625.477294921875	654.0197143554688	-403.8997497558594	-1710.922485351562	40.21207046508789	-363.0253295898438	-1678.2783203125	287.9795227050781	-379.68359375	-1500.750122070312	47.28266525268555	-296.5203247070312	-1570.569702148438	40.26337051391602	-256.6957397460938	-1582.147705078125	42.16971969604492	-372.3931884765625	-1776.158813476562	47.3432502746582	-314.7643127441406	-1648.969970703125	519.2705078125	-87.6025390625	-1630.22607421875	788.7522583007812	-39.6019401550293	-1723.482421875	40.07312393188477	-115.4395751953125	-1645.142944335938	404.0074768066406	-105.5633163452148	-1510.308227539062	47.84452438354492	-144.8431701660156	-1563.9521484375	44.82265853881836	-191.6275939941406	-1615.598754882812	40.68766784667969	-82.70470428466797	-1782.605712890625	40.04549026489258	-178.3116302490234	
3	0.02	-1771.82080078125	1057.308837890625	-167.5410614013672	-1759.482055664062	1062.639282226562	-286.9310913085938	-1765.48974609375	1134.72900390625	-244.3106079101562	-1526.427978515625	1323.12744140625	-224.6205902099609	-1779.93505859375	1263.115356445312	-241.0496826171875	-1717.22216796875	1524.525268554688	-242.5409240722656	-1552.417114257812	1440.3232421875	-225.3558044433594	-1799.40087890625	1387.49462890625	-173.1859130859375	-1727.517700195312	1485.43701171875	-354.5887451171875	-1633.207763671875	1484.127807617188	-400.0500793457031	-1647.965942382812	1365.948486328125	-480.7435913085938	-1609.838012695312	1156.753662109375	-501.9105529785156	-1687.705200195312	1133.68798828125	-470.5263061523438	-1501.198120117188	940.02734375	-415.3916015625	-1509.5517578125	915.9276123046875	-495.9646911621094	-1571.39111328125	1052.873779296875	-505.4795532226562	-1477.510009765625	749.031005859375	-406.1716918945312	-1480.88330078125	831.3026123046875	-482.6694641113281	-1448.353149414062	844.7158813476562	-423.4473876953125	-1672.094970703125	1485.590576171875	-67.91502380371094	-1694.664916992188	1421.7119140625	-0.8583853244781494	-1709.508544921875	1138.797973632812	35.29823684692383	-1746.408081054688	1133.713256835938	-52.79541778564453	-1568.666259765625	927.4312133789062	-16.1732177734375	-1620.112670898438	910.2708740234375	49.08463287353516	-1680.709838867188	1070.660888671875	45.01958084106445	-1554.161010742188	734.2822265625	-27.56821441650391	-1526.366088867188	806.3060913085938	-5.183196544647217	-1578.1318359375	803.6969604492188	45.97363662719727	-1690.094116210938	1677.370971679688	-220.1214141845703	-1469.284790039062	1730.433715820312	-244.1487121582031	-1505.27880859375	1736.052734375	-150.6004028320312	-1601.385131835938	1678.733032226562	-329.0566711425781	-1649.516845703125	996.9898071289062	-418.33544921875	-1685.38037109375	1013.681579589844	-51.95415115356445	-1584.73681640625	1055.781127929688	-80.6114501953125	-1552.9033203125	1035.606323242188	-360.5175476074219	-1629.305908203125	509.7806091308594	-371.6317443847656	-1625.313354492188	654.0213623046875	-403.7373962402344	-1710.921875	40.21082305908203	-363.0257263183594	-1678.2431640625	287.9967346191406	-379.6513366699219	-1500.748657226562	47.27448654174805	-296.5144653320312	-1570.567504882812	40.25668334960938	-256.6920776367188	-1582.146850585938	42.17439651489258	-372.39599609375	-1776.156127929688	47.33883666992188	-314.7672424316406	-1648.96044921875	519.261474609375	-87.50251007080078	-1630.17724609375	788.6360473632812	-39.61701965332031	-1723.477416992188	40.06982421875	-115.4387130737305	-1645.098999023438	403.9976501464844	-105.4724502563477	-1510.31005859375	47.84842681884766	-144.8397827148438	-1563.932006835938	44.82852935791016	-191.6400756835938	-1615.600219726562	40.69001007080078	-82.70207214355469	-1782.601684570312	40.04435729980469	-178.3159027099609	
4	0.03	-1771.80517578125	1057.376831054688	-167.3388977050781	-1759.3056640625	1062.705078125	-286.7330322265625	-1765.323608398438	1134.828491210938	-244.1166381835938	-1526.086791992188	1323.058837890625	-224.1974029541016	-1779.647216796875	1263.262329101562	-240.7850494384766	-1716.720703125	1524.60107421875	-242.1773681640625	-1552.0234375	1440.320434570312	-224.9082946777344	-1799.059204101562	1387.628295898438	-172.8885192871094	-1727.037963867188	1485.5966796875	-354.2506713867188	-1632.647094726562	1484.225708007812	-399.6271362304688	-1647.4404296875	1366.057739257812	-480.3569030761719	-1609.401123046875	1156.841552734375	-501.4061889648438	-1687.322387695312	1133.814453125	-470.0845031738281	-1500.895629882812	940.2151489257812	-414.6637573242188	-1509.241943359375	916.023681640625	-495.2855529785156	-1571.045166015625	1052.959716796875	-504.9435424804688	-1476.8359375	749.406982421875	-405.1913757324219	-1480.394287109375	831.4785766601562	-481.9320068359375	-1447.848388671875	845.0652465820312	-422.6464538574219	-1671.727416992188	1485.581176757812	-67.54334259033203	-1694.365600585938	1421.70361328125	-0.4690313935279846	-1709.58447265625	1138.801147460938	35.63991928100586	-1746.466186523438	1133.733032226562	-52.49808502197266	-1568.912353515625	927.3839721679688	-15.82982921600342	-1620.311279296875	910.22802734375	49.41574478149414	-1680.7919921875	1070.6650390625	45.33639144897461	-1554.572875976562	734.2695922851562	-27.30533218383789	-1526.468994140625	806.2833862304688	-4.813688278198242	-1578.391235351562	803.5938110351562	46.33751678466797	-1689.425048828125	1677.545288085938	-218.9393920898438	-1468.450439453125	1730.241943359375	-244.2147369384766	-1504.001708984375	1735.707885742188	-150.4174346923828	-1601.3349609375	1678.854614257812	-328.4073791503906	-1649.36376953125	997.0203857421875	-418.1214904785156	-1685.339599609375	1013.688110351562	-51.72267532348633	-1584.751342773438	1055.682983398438	-80.29812622070312	-1552.68212890625	1035.537841796875	-360.1986999511719	-1629.273071289062	509.7945861816406	-371.5234375	-1625.12353515625	654.0238647460938	-403.5450439453125	-1710.920532226562	40.20827102661133	-363.0262145996094	-1678.20361328125	288.0184020996094	-379.6125183105469	-1500.747924804688	47.26735687255859	-296.5090637207031	-1570.5654296875	40.24890518188477	-256.6866455078125	-1582.145141601562	42.17891693115234	-372.3969116210938	-1776.153442382812	47.33881759643555	-314.7742004394531	-1648.942504882812	519.2507934570312	-87.38088989257812	-1630.144409179688	788.5224609375	-39.59398651123047	-1723.471435546875	40.06641387939453	-115.4409713745117	-1645.045288085938	403.9830932617188	-105.3694229125977	-1510.311401367188	47.85328674316406	-144.8346099853516	-1563.916870117188	44.83396911621094	-191.6488647460938	-1615.602416992188	40.69316482543945	-82.69895935058594	-1782.59619140625	40.04263687133789	-178.3219299316406	
